<svg id="Capa_1" data-name="Capa 1" xmlns="http://www.w3.org/2000/svg" viewBox="0 0 512 512"><title>up</title><path d="M256,0C114.61,0,0,114.61,0,256S114.61,512,256,512,512,397.39,512,256,397.39,0,256,0Zm0,472C136.7,472,40,375.3,40,256S136.7,40,256,40s216,96.7,216,216S375.3,472,256,472Z" transform="translate(0 0)"/><polygon points="160.11 190 160.11 158 256.11 158 352.11 158 352.11 190 384.11 190 384.11 126 128.11 126 128.11 190 160.11 190"/><polygon points="240 263.93 239.4 391.92 271.4 392.07 272 264.07 320 264.3 256.37 184 192 263.7 240 263.93"/></svg>